<svg width="33" height="33" viewBox="0 0 33 33" fill="none" xmlns="http://www.w3.org/2000/svg">
<rect width="33" height="33" rx="16.5" fill="#FFBED2"/>
<path d="M26.4 28.8646C26.4 28.8646 20.9182 29.3745 16.4017 21.0025C16.2088 20.6465 15.7287 20.5747 15.4417 20.8623C14.4064 21.9043 12.3753 24.5889 11.9858 29.881C11.9858 29.881 11.9858 29.8792 11.9841 29.8776C11.9089 29.7492 9.8232 26.1612 11.4306 22.4535C12.7307 19.4542 14.0323 18.1282 14.6319 16.2819C14.7035 16.0612 14.4986 15.8508 14.2765 15.9106C11.5706 16.6325 8.85962 17.6728 7.12757 19.8817C7.41109 17.6677 9.53968 15.8455 11.3589 14.8121C12.898 13.9379 14.5397 13.4246 16.2513 13.0207C18.2261 12.5535 19.9837 11.7785 21.3145 10.1838C22.8298 8.36853 23.5626 5.94051 23.9162 3.63751C24.6626 6.28779 24.1793 9.41393 22.6043 11.6775C21.8203 12.8033 20.8022 13.6504 19.6439 14.2662C19.3586 14.4185 19.1759 14.7111 19.1672 15.0346C19.1279 16.612 19.2647 20.0016 20.9251 22.6673C23.1645 26.264 25.1562 28.1528 26.4 28.8646Z" fill="#FFEFF4"/>
<path d="M16.254 12.2421C17.5565 12.2421 18.6124 11.1845 18.6124 9.87994C18.6124 8.57535 17.5565 7.51778 16.254 7.51778C14.9515 7.51778 13.8957 8.57535 13.8957 9.87994C13.8957 11.1845 14.9515 12.2421 16.254 12.2421Z" fill="#FFDFE9"/>
<path d="M22.0465 4.77529C18.7441 4.65953 15.1936 5.09694 12.3158 6.83533C9.50893 8.53092 7.94149 11.3559 7.13423 14.4614C6.71643 16.0686 6.57014 17.7058 6.30985 19.3389C5.59081 15.6988 5.82551 11.9196 7.86017 8.72774C9.47349 6.19697 12.2983 4.62384 15.2132 4.1466C17.4635 3.77801 19.9124 3.93933 22.0465 4.77529Z" fill="#FFEFF4"/>
<path d="M23.9162 3.6377C23.4106 12.9763 18.6122 13.1475 15.4946 16.9579C11.3078 22.0739 11.9843 29.8776 11.9843 29.8776C11.9091 29.7492 9.8234 26.1612 11.4308 22.4535C12.7309 19.4542 14.0325 18.1281 14.6321 16.2819C14.7037 16.0612 14.4988 15.8508 14.2767 15.9105C11.5708 16.6325 8.85982 17.6728 7.12777 19.8817C7.41129 17.6677 9.53987 15.8455 11.3591 14.8121C12.8982 13.9379 14.5399 13.4245 16.2515 13.0207C18.2263 12.5535 19.9839 11.7784 21.3147 10.1838C22.8298 8.36852 23.5626 5.94069 23.9162 3.6377Z" fill="#FFDFE9"/>
</svg>
