<svg width="40" height="70" viewBox="0 0 40 70" fill="none" xmlns="http://www.w3.org/2000/svg">
<path d="M1.2746 51.4476L11.7611 56.9516L11.3556 68.8286L1.2746 63.0084L1.2746 51.4476Z" fill="#84D4FF"/>
<rect width="11.6405" height="12.0889" transform="matrix(0.866025 0.5 -2.20305e-08 1 1.2746 39.564)" fill="#ACDAF3"/>
<rect width="11.5873" height="11.5873" transform="matrix(0.866025 0.5 -0.866025 0.5 11.3095 34.0667)" fill="#12435E"/>
<rect width="11.5873" height="11.5873" transform="matrix(0.866025 0.5 -0.866025 0.5 10.1508 0)" fill="#398AB9"/>
<rect width="11.5873" height="11.5873" transform="matrix(0.866025 0.5 -0.866025 0.5 20 5.67773)" fill="#398AB9"/>
<rect width="11.5873" height="11.5873" transform="matrix(0.866025 0.5 -0.866025 0.5 29.9651 11.4714)" fill="#398AB9"/>
<rect width="11.5873" height="11.5873" transform="matrix(0.866025 0.5 -0.866025 0.5 21.2746 28.2729)" fill="#12435E"/>
<rect width="11.8137" height="9.72793" transform="matrix(0.866025 0.5 -0.866025 0.5 29.7453 23.4092)" fill="#398AB9"/>
<rect width="11.3197" height="11.7211" transform="matrix(0.866025 -0.5 2.20305e-08 1 11.3556 57.1074)" fill="#6EAFD5"/>
<rect width="11.3197" height="11.7553" transform="matrix(0.866025 -0.5 2.20305e-08 1 11.3556 45.3523)" fill="#8CC4E4"/>
<rect width="11.5873" height="11.5873" transform="matrix(0.866025 -0.5 2.20305e-08 1 20.8572 39.8604)" fill="#8CC4E4"/>
<rect width="11.2391" height="11.6456" transform="matrix(0.866025 -0.5 2.20305e-08 1 30.2429 34.3562)" fill="#8CC4E4"/>
<rect width="11.5873" height="11.5873" transform="matrix(0.866025 -0.5 2.20305e-08 1 29.8953 23.0588)" fill="#61A2C8"/>
<rect width="11.5873" height="11.5873" transform="matrix(0.866025 0.5 -2.20305e-08 1 19.9302 17.2651)" fill="#1C658C"/>
<rect width="11.5873" height="11.5873" transform="matrix(0.866025 0.5 -2.20305e-08 1 9.96509 11.4714)" fill="#1C658C"/>
<rect width="11.5873" height="11.5873" transform="matrix(0.866025 0.5 -2.20305e-08 1 0 5.67773)" fill="#1C658C"/>
</svg>
